# xmcd
#
# Track frame offsets:
#	150
#	17384
#	34033
#	48657
#	67067
#	78997
#	91266
#	109065
#	122582
#	138748
#	156360
#	173806
#	190727
#
# Disc length: 2845 seconds
#
# Revision: 1007704393
# Processed by: cddbd v1.5.2PL0 Copyright (c) Steve Scherf et al.
# Submitted via: EZCDAudioConverter 8.0.7.1
#
DISCID=a90b1b0d
DTITLE=Gloriana
DYEAR=2009
DGENRE=Country
TTITLE0=How Far Do You Wanna Go?
TTITLE1=Wild At Heart
TTITLE2=The Way It Goes
TTITLE3=Lead Me On
TTITLE4=If You're Leavin'
TTITLE5=You Said
TTITLE6=Cry On Command
TTITLE7=Over Me Now?
TTITLE8=Come And Save Me
TTITLE9=Even If I Wanted To
TTITLE10=All The Things That Mean The Most
TTITLE11=Change Your Mind
TTITLE12=Time To Let Me Go
EXTD=
EXTT0=
EXTT1=
EXTT2=
EXTT3=
EXTT4=
EXTT5=
EXTT6=
EXTT7=
EXTT8=
EXTT9=
EXTT10=
EXTT11=
EXTT12=
PLAYORDER=
